name rise37.2698peak67.6939fall79.5734.mot
datacolumns 19
datarows 23
range 17.47328100000000 17.50993800000000
endheader
time	ground_force1_vx	ground_force1_vy	ground_force1_vz	ground_force1_px	ground_force1_py	ground_force1_pz	ground_force2_vx	ground_force2_vy	ground_force2_vz	ground_force2_px	ground_force2_py	ground_force2_pz	ground_torque1_x	ground_torque1_y	ground_torque1_z	ground_torque2_x	ground_torque2_y	ground_torque2_z	
17.47328100000000	-7.07132200000000	41.62609500000000	-6.40748300000000	0.31646500000000	0.00000000000000	0.10731800000000	-47.48210100000000	786.66090399999996	-51.28690300000000	0.14403000000000	0.00000000000000	-0.07990700000000	0.00000000000000	-4.06073600000000	0.00000000000000	0.00000000000000	-20.99776900000000	0.00000000000000	
17.47493900000000	-7.75053700000000	48.74091300000000	-7.18013400000000	0.32366000000000	0.00000000000000	0.10799500000000	-48.33405800000000	784.35256300000003	-50.94893200000000	0.14306900000000	0.00000000000000	-0.07979800000000	0.00000000000000	-4.62335200000000	0.00000000000000	0.00000000000000	-20.93800100000000	0.00000000000000	
17.47659900000000	-8.29382100000000	55.93372900000000	-7.87225600000000	0.33014800000000	0.00000000000000	0.10860800000000	-49.19878300000000	781.91035599999998	-50.59604400000000	0.14211100000000	0.00000000000000	-0.07968600000000	0.00000000000000	-5.14748700000000	0.00000000000000	0.00000000000000	-20.87889200000000	0.00000000000000	
17.47827400000000	-8.68153900000000	63.11136300000000	-8.46645100000000	0.33603100000000	0.00000000000000	0.10916700000000	-50.07538600000000	779.33023500000002	-50.22799500000000	0.14115800000000	0.00000000000000	-0.07957400000000	0.00000000000000	-5.62045900000000	0.00000000000000	0.00000000000000	-20.82032600000000	0.00000000000000	
17.47993200000000	-8.90190100000000	70.20384600000000	-8.95118800000000	0.34139200000000	0.00000000000000	0.10967900000000	-50.96287600000000	776.60818099999995	-49.84455200000000	0.14020900000000	0.00000000000000	-0.07946000000000	0.00000000000000	-6.03326400000000	0.00000000000000	0.00000000000000	-20.76217600000000	0.00000000000000	
17.48162000000000	-8.95085800000000	77.16654000000000	-9.32086600000000	0.34629900000000	0.00000000000000	0.11015200000000	-51.86016100000000	773.74021400000004	-49.44548400000000	0.13926300000000	0.00000000000000	-0.07934400000000	0.00000000000000	-6.38075000000000	0.00000000000000	0.00000000000000	-20.70429600000000	0.00000000000000	
17.48328000000000	-8.83137800000000	83.97982200000000	-9.57537800000000	0.35080800000000	0.00000000000000	0.11059100000000	-52.76604500000000	770.72240599999998	-49.03057400000000	0.13832200000000	0.00000000000000	-0.07922800000000	0.00000000000000	-6.66144300000000	0.00000000000000	0.00000000000000	-20.64652200000000	0.00000000000000	
17.48493900000000	-8.55227600000000	90.64676400000000	-9.71930700000000	0.35496400000000	0.00000000000000	0.11100100000000	-53.67923300000000	767.55089399999997	-48.59961300000000	0.13738500000000	0.00000000000000	-0.07910900000000	0.00000000000000	-6.87710000000000	0.00000000000000	0.00000000000000	-20.58867700000000	0.00000000000000	
17.48659900000000	-8.12676900000000	97.18934400000001	-9.76086900000000	0.35880800000000	0.00000000000000	0.11138500000000	-54.59832400000000	764.22189700000001	-48.15240800000000	0.13645300000000	0.00000000000000	-0.07899000000000	0.00000000000000	-7.03207000000000	0.00000000000000	0.00000000000000	-20.53056700000000	0.00000000000000	
17.48827700000000	-7.57092400000000	103.64375600000000	-9.71074900000000	0.36237200000000	0.00000000000000	0.11174600000000	-55.52181800000000	760.73172299999999	-47.68878000000000	0.13552500000000	0.00000000000000	-0.07886900000000	0.00000000000000	-7.13254800000000	0.00000000000000	0.00000000000000	-20.47198400000000	0.00000000000000	
17.48993800000000	-6.90213700000000	110.05537300000000	-9.58093300000000	0.36568500000000	0.00000000000000	0.11208800000000	-56.44811500000000	757.07678799999996	-47.20857000000000	0.13460200000000	0.00000000000000	-0.07874600000000	0.00000000000000	-7.18581200000000	0.00000000000000	0.00000000000000	-20.41270600000000	0.00000000000000	
17.49160400000000	-6.13777700000000	116.47382100000000	-9.38364300000000	0.36877100000000	0.00000000000000	0.11241100000000	-57.37551700000000	753.25362700000005	-46.71163700000000	0.13368400000000	0.00000000000000	-0.07862200000000	0.00000000000000	-7.19949500000000	0.00000000000000	0.00000000000000	-20.35249700000000	0.00000000000000	
17.49326600000000	-5.29406100000000	122.94855400000000	-9.13043100000000	0.37165100000000	0.00000000000000	0.11271800000000	-58.30222900000000	749.25891200000001	-46.19786500000000	0.13277000000000	0.00000000000000	-0.07849700000000	0.00000000000000	-7.18095600000000	0.00000000000000	0.00000000000000	-20.29110800000000	0.00000000000000	
17.49493200000000	-4.38521300000000	129.52516600000001	-8.83148600000000	0.37434300000000	0.00000000000000	0.11301200000000	-59.22636600000000	745.08946100000003	-45.66716100000000	0.13186200000000	0.00000000000000	-0.07837000000000	0.00000000000000	-7.13678600000000	0.00000000000000	0.00000000000000	-20.22827900000000	0.00000000000000	
17.49661600000000	-3.42292500000000	136.24262700000000	-8.49516400000000	0.37686300000000	0.00000000000000	0.11329200000000	-60.14595300000000	740.74225899999999	-45.11946100000000	0.13095900000000	0.00000000000000	-0.07824200000000	0.00000000000000	-7.07245200000000	0.00000000000000	0.00000000000000	-20.16373700000000	0.00000000000000	
17.49827900000000	-2.41610800000000	143.13146699999999	-8.12773900000000	0.37922500000000	0.00000000000000	0.11356000000000	-61.05892900000000	736.21446600000002	-44.55472700000000	0.13006100000000	0.00000000000000	-0.07811200000000	0.00000000000000	-6.99209400000000	0.00000000000000	0.00000000000000	-20.09720300000000	0.00000000000000	
17.49993300000000	-1.37089300000000	150.21288100000001	-7.73336000000000	0.38144100000000	0.00000000000000	0.11381800000000	-61.96315400000000	731.50344099999995	-43.97295400000000	0.12916800000000	0.00000000000000	-0.07798000000000	0.00000000000000	-6.89846200000000	0.00000000000000	0.00000000000000	-20.02838600000000	0.00000000000000	
17.50162300000000	-0.29084300000000	157.49866100000000	-7.31416900000000	0.38352200000000	0.00000000000000	0.11406500000000	-62.85641100000000	726.60675000000003	-43.37417000000000	0.12828100000000	0.00000000000000	-0.07784700000000	0.00000000000000	-6.79296300000000	0.00000000000000	0.00000000000000	-19.95698600000000	0.00000000000000	
17.50328100000000	0.82267300000000	164.99180500000000	-6.87055400000000	0.38547800000000	0.00000000000000	0.11430400000000	-63.73641300000000	721.52218600000003	-42.75843800000000	0.12740000000000	0.00000000000000	-0.07771200000000	0.00000000000000	-6.67581300000000	0.00000000000000	0.00000000000000	-19.88270100000000	0.00000000000000	
17.50493800000000	1.97001600000000	172.68763100000001	-6.40148700000000	0.38731500000000	0.00000000000000	0.11453400000000	-64.60081099999999	716.24778300000003	-42.12585500000000	0.12652400000000	0.00000000000000	-0.07757600000000	0.00000000000000	-6.54624300000000	0.00000000000000	0.00000000000000	-19.80521800000000	0.00000000000000	
17.50660600000000	3.15276200000000	180.57522299999999	-5.90490900000000	0.38904300000000	0.00000000000000	0.11475700000000	-65.44719400000000	710.78183300000001	-41.47655800000000	0.12565400000000	0.00000000000000	-0.07743800000000	0.00000000000000	-6.40275100000000	0.00000000000000	0.00000000000000	-19.72422300000000	0.00000000000000	
17.50828200000000	4.37319200000000	188.63903500000001	-5.37811600000000	0.39066800000000	0.00000000000000	0.11497200000000	-66.27310199999999	705.12290299999995	-40.81072300000000	0.12479000000000	0.00000000000000	-0.07729800000000	0.00000000000000	-6.24335500000000	0.00000000000000	0.00000000000000	-19.63939700000000	0.00000000000000	
17.50993800000000	5.63381300000000	196.86051200000000	-4.81813400000000	0.39219500000000	0.00000000000000	0.11518000000000	-67.07603000000000	699.26984800000002	-40.12856300000000	0.12393300000000	0.00000000000000	-0.07715600000000	0.00000000000000	-6.06584900000000	0.00000000000000	0.00000000000000	-19.55042100000000	0.00000000000000	
